<?xml version="1.0" encoding="UTF-8"?>
<svg width="382px" height="101px" viewBox="0 0 382 101" version="1.1" xmlns="http://www.w3.org/2000/svg" xmlns:xlink="http://www.w3.org/1999/xlink">
    <!-- Generator: Sketch 46.2 (44496) - http://www.bohemiancoding.com/sketch -->
    <title>Artboard@2x</title>
    <desc>Created with Sketch.</desc>
    <defs></defs>
    <g id="Page-1" stroke="none" stroke-width="1" fill="none" fill-rule="evenodd">
        <g id="Artboard" fill="#FFFFFF">
            <path d="M161.6,20.7 C160.2,19.2 158.7,18.1 157,17.3 C155.3,16.6 153.5,16.2 151.8,16.2 C149.6,16.2 147.5,16.6 145.5,17.5 C143.5,18.3 141.9,19.7 140.7,21.5 L140.6,21.5 L140.6,3.8 L131,3.8 L131,52.6 L140.1,52.6 L140.1,48.1 L140.2,48.1 C141.2,50.1 142.8,51.5 144.8,52.3 C146.8,53.1 149.1,53.5 151.7,53.5 C153.5,53.5 155.2,53.1 156.9,52.4 C158.6,51.7 160.2,50.5 161.5,49 C162.9,47.5 164,45.6 164.9,43.2 C165.8,40.9 166.2,38.1 166.2,34.8 C166.2,31.6 165.8,28.8 164.9,26.4 C164.1,24.2 163,22.2 161.6,20.7 Z M156.1,39.2 C155.8,40.6 155.3,41.8 154.6,42.8 C153.9,43.8 153.1,44.7 152.1,45.3 C151.1,45.9 149.9,46.2 148.4,46.2 C147,46.2 145.8,45.9 144.7,45.3 C143.7,44.7 142.8,43.9 142.1,42.8 C141.4,41.7 140.9,40.5 140.6,39.2 C140.3,37.8 140.1,36.4 140.1,35 C140.1,33.5 140.3,32.1 140.6,30.7 C140.9,29.3 141.4,28.1 142.1,27.1 C142.8,26.1 143.6,25.2 144.7,24.6 C145.7,24 147,23.7 148.4,23.7 C149.8,23.7 151.1,24 152.1,24.6 C153.1,25.2 154,26.1 154.6,27.1 C155.3,28.2 155.8,29.4 156.1,30.7 C156.4,32.1 156.6,33.5 156.6,35 C156.6,36.4 156.4,37.8 156.1,39.2 Z" id="Shape" fill-rule="nonzero"></path>
            <rect id="Rectangle-path" fill-rule="nonzero" x="171.9" y="17.2" width="9.6" height="35.4"></rect>
            <rect id="Rectangle-path" fill-rule="nonzero" x="171.9" y="3.8" width="9.6" height="8"></rect>
            <path d="M219.1,20.7 C217.7,19.2 216.2,18.1 214.5,17.3 C212.8,16.6 211,16.2 209.3,16.2 C207.1,16.2 205,16.6 203,17.5 C201,18.3 199.4,19.7 198.2,21.5 L198.1,21.5 L198.1,3.8 L188.5,3.8 L188.5,52.6 L197.6,52.6 L197.6,48.1 L197.7,48.1 C198.7,50.1 200.3,51.5 202.3,52.3 C204.3,53.1 206.6,53.5 209.2,53.5 C211,53.5 212.7,53.1 214.4,52.4 C216.1,51.7 217.7,50.5 219,49 C220.3,47.5 221.5,45.6 222.4,43.2 C223.3,40.9 223.7,38.1 223.7,34.8 C223.7,31.6 223.3,28.8 222.4,26.4 C221.6,24.2 220.5,22.2 219.1,20.7 Z M213.7,39.2 C213.4,40.6 212.9,41.8 212.2,42.8 C211.5,43.8 210.7,44.7 209.7,45.3 C208.7,45.9 207.5,46.2 206,46.2 C204.6,46.2 203.4,45.9 202.3,45.3 C201.3,44.7 200.4,43.9 199.7,42.8 C199,41.7 198.5,40.5 198.2,39.2 C197.9,37.8 197.7,36.4 197.7,35 C197.7,33.5 197.9,32.1 198.2,30.7 C198.5,29.3 199,28.1 199.7,27.1 C200.4,26.1 201.2,25.2 202.3,24.6 C203.3,24 204.6,23.7 206,23.7 C207.4,23.7 208.7,24 209.7,24.6 C210.7,25.2 211.6,26.1 212.2,27.1 C212.9,28.2 213.4,29.4 213.7,30.7 C214,32.1 214.2,33.5 214.2,35 C214.1,36.4 214,37.8 213.7,39.2 Z" id="Shape" fill-rule="nonzero"></path>
            <path d="M274.2,19.5 C273.2,18.5 272.1,17.8 270.7,17.3 C269.4,16.8 267.9,16.6 266.3,16.6 C263.5,16.6 261.2,17.2 259.4,18.5 C257.7,19.8 256.3,21.6 255.2,24.1 L255.1,24.1 C254.9,23.2 254.6,22.3 254.1,21.4 C253.6,20.5 252.9,19.7 252.1,19 C251.2,18.3 250.2,17.7 249,17.3 C247.8,16.9 246.3,16.6 244.7,16.6 C243.4,16.6 242.1,16.8 240.9,17.2 C239.7,17.6 238.6,18.2 237.6,18.9 C236.6,19.6 235.8,20.5 235.1,21.5 C234.4,22.5 233.9,23.5 233.7,24.6 L233.6,24.6 L233.6,17.4 L231,17.4 L231,52.6 L233.6,52.6 L233.6,31.8 C233.6,29.6 233.9,27.6 234.6,26 C235.3,24.4 236.2,23 237.2,22 C238.3,20.9 239.5,20.2 240.8,19.7 C242.1,19.2 243.4,19 244.6,19 C245.1,19 245.9,19.1 246.8,19.3 C247.7,19.5 248.6,19.9 249.5,20.5 C250.4,21.1 251.1,22.1 251.8,23.4 C252.5,24.7 252.8,26.4 252.8,28.6 L252.8,52.7 L255.4,52.7 L255.4,31.8 C255.4,29.7 255.7,27.8 256.2,26.2 C256.7,24.6 257.5,23.2 258.5,22.1 C259.5,21 260.6,20.2 262,19.6 C263.3,19.1 264.8,18.8 266.4,18.8 C266.9,18.8 267.6,18.9 268.5,19 C269.4,19.2 270.4,19.6 271.3,20.2 C272.2,20.9 273,21.8 273.7,23.1 C274.4,24.4 274.7,26.1 274.7,28.4 L274.7,52.5 L277.3,52.5 L277.3,28.5 C277.3,26.4 277,24.7 276.5,23.2 C275.9,21.8 275.2,20.5 274.2,19.5 Z" id="Shape" fill-rule="nonzero"></path>
            <path d="M312.5,27.2 C311.8,25.1 310.9,23.3 309.6,21.7 C308.3,20.1 306.8,18.9 304.9,18 C303,17.1 300.9,16.6 298.4,16.6 C295.7,16.6 293.4,17.1 291.5,18.1 C289.5,19.1 287.9,20.5 286.6,22.2 C285.3,23.9 284.3,25.9 283.7,28.2 C283,30.5 282.7,32.8 282.7,35.3 C282.7,37.9 283,40.2 283.6,42.5 C284.2,44.7 285.2,46.6 286.5,48.2 C287.8,49.8 289.4,51.1 291.3,52 C293.2,52.9 295.5,53.4 298,53.4 C302.2,53.4 305.6,52.3 308.1,50.1 C310.7,47.9 312.3,44.8 313.1,40.7 L310.5,40.7 C309.7,44 308.3,46.5 306.3,48.4 C304.3,50.2 301.5,51.2 298,51.2 C295.9,51.2 294,50.8 292.4,50 C290.8,49.2 289.5,48.1 288.4,46.6 C287.3,45.2 286.5,43.5 286,41.7 C285.5,39.8 285.2,37.9 285.2,35.8 L285.2,35.4 L285.2,35.4 L313.4,35.4 C313.4,35.2 313.4,35 313.4,34.7 C313.4,34.4 313.4,34.1 313.4,33.9 C313.5,31.5 313.1,29.3 312.5,27.2 Z M285.3,33.1 C285.4,31.3 285.8,29.5 286.4,27.8 C287,26.1 287.8,24.5 288.9,23.2 C290,21.9 291.3,20.9 292.9,20.1 C294.5,19.3 296.3,18.9 298.4,18.9 C300.3,18.9 302.1,19.3 303.6,20.1 C305.1,20.9 306.4,21.9 307.5,23.2 C308.6,24.5 309.4,26 309.9,27.7 C310.4,29.4 310.8,31.2 310.9,33.1 L285.3,33.1 Z" id="Shape" fill-rule="nonzero"></path>
            <path d="M98.8,17.7 C98.4,17.5 94.4,16.2 87,16.2 C82.4,16.2 77.5,16.7 72.3,17.7 C61.1,19.9 54.4,23.2 50.9,25.4 C47.4,23.2 40.7,19.9 29.5,17.7 C24.3,16.7 19.4,16.2 14.8,16.2 C7.4,16.2 3.4,17.5 3,17.7 L0,18.8 L0,87.8 L4.2,88 C4.3,88 14.6,88.4 27.2,91.5 C39.6,94.6 48.5,99.8 48.6,99.8 L50.8,101.1 L53,99.8 C53.1,99.7 62.1,94.6 74.5,91.5 C87.1,88.4 97.4,88 97.5,88 L101.7,87.8 L101.7,18.8 L98.8,17.7 Z M48.6,89.9 C44.5,87.9 37.7,85 29.3,82.9 C20.7,80.8 13.2,79.8 8.7,79.4 L8.7,25.5 C10.2,25.3 12.2,25.1 14.7,25.1 C18.7,25.1 23.1,25.6 27.8,26.5 C42.2,29.3 47.8,34.2 47.8,34.2 L48.6,34.9 L48.6,89.9 L48.6,89.9 Z M93,79.4 C88.6,79.8 81,80.8 72.4,82.9 C64,85 57.2,87.9 53,89.9 L53,34.9 L53.7,34.3 C53.8,34.2 59.5,29.3 73.9,26.6 C78.5,25.7 82.9,25.2 87,25.2 C89.5,25.2 91.5,25.4 93,25.6 L93,79.4 Z" id="Shape" fill-rule="nonzero"></path>
            <path d="M4.2,11.5 C4.3,11.5 15,9.6 29,12 C41.5,14.1 49.5,19.2 49.6,19.2 L51,20.1 L52.2,19 C52.3,18.9 59.4,12.7 71.2,8.8 C87,3.7 97.5,6 97.6,6 C98.8,6.3 100,5.5 100.2,4.3 C100.5,3.1 99.7,1.9 98.6,1.6 C98.1,1.5 86.9,-1 69.9,4.6 C60,7.8 53.3,12.6 50.7,14.6 C47.7,13 40.2,9.4 29.7,7.6 C14.9,5.1 3.9,7 3.5,7.1 C2.3,7.3 1.5,8.5 1.7,9.7 C1.9,10.9 3,11.7 4.2,11.5 Z" id="Shape" fill-rule="nonzero"></path>
            <path d="M147.2,94.5 C145.4,94.5 143.6,93.7 143.6,92 L143.6,92 C142.5,93.7 140.3,94.6 138.1,94.6 C134.9,94.6 132.2,92.9 132.2,89.6 C132.2,86.4 134.7,84.2 139.4,84.2 C140.8,84.2 142.3,84.4 143.4,84.6 L143.4,83.6 C143.4,81.1 141.7,80.1 139.3,80.1 C137.6,80.1 135.8,80.6 134.5,81.3 L133.5,79.1 C135.2,77.8 137.7,77.4 139.8,77.4 C144.2,77.4 146.6,79.3 146.6,83.1 L146.6,89.8 C146.6,91 146.8,91.7 147.7,92.1 L147.2,94.5 Z M139.6,86.6 C136.6,86.6 135.3,87.6 135.3,89.3 C135.3,91.1 136.8,91.8 138.4,91.8 C140.7,91.8 143.4,90.3 143.4,88.1 L143.4,87 C142.4,86.8 141,86.6 139.6,86.6 Z" id="Shape" fill-rule="nonzero"></path>
            <path d="M178.7,92 C176.6,93.6 173.5,94.5 170.8,94.5 C164.1,94.5 159.1,89.3 159.1,82.6 C159.1,75.7 164.2,70.5 171,70.5 C173.7,70.5 176.6,71.4 178.7,73 L177.2,75.4 C175.6,74.1 173.2,73.4 171.1,73.4 C166.2,73.4 162.5,77.3 162.5,82.5 C162.5,87.7 166.2,91.5 171,91.5 C173.1,91.5 175.6,90.8 177.2,89.6 L178.7,92 Z" id="Shape" fill-rule="nonzero"></path>
            <path d="M193.5,94.2 L193.5,84.8 C193.5,82.2 192.3,80.3 189.6,80.3 C187,80.3 185,82.1 185,84.7 L185,94.2 L181.8,94.2 L181.8,70.3 L185,69.7 L185,79.9 C186.2,78.3 188.3,77.4 190.5,77.4 C194.5,77.4 196.8,80.2 196.8,84.2 L196.8,94.2 L193.5,94.2 Z" id="Shape" fill-rule="nonzero"></path>
            <path d="M208.6,94.5 C204,94.5 200.2,91.5 200.2,86 C200.2,80.7 203.8,77.3 208.4,77.3 C213.1,77.3 216.1,80.9 216.1,85.5 C216.1,86 216.1,86.6 216,86.9 L203.5,86.9 C203.8,89.9 205.8,91.7 208.8,91.7 C210.5,91.7 212.3,91.1 213.6,90.1 L215.1,92.1 C213.4,93.6 211.1,94.5 208.6,94.5 Z M212.9,84.6 C212.7,82.2 211.2,80.2 208.4,80.2 C205.8,80.2 203.9,82 203.5,84.6 L212.9,84.6 Z" id="Shape" fill-rule="nonzero"></path>
            <path d="M234.9,93.4 C234.9,98.5 231.4,101.4 226.5,101.4 C223.8,101.4 221.6,100.6 219.7,99 L221.2,96.9 C222.6,97.9 224.4,98.6 226.3,98.6 C229.4,98.6 231.6,96.9 231.6,92.9 L231.6,91.4 L231.6,91.4 C230.4,93.1 228.2,93.9 226,93.9 C221.8,93.9 218.5,90.7 218.5,85.6 C218.5,80.2 222.2,77.2 226.2,77.2 C228.4,77.2 230.6,78.1 231.8,79.9 L232.1,77.5 L234.8,77.5 L234.8,93.4 L234.9,93.4 Z M231.7,85.6 C231.7,82.5 229.9,80.2 226.8,80.2 C223.8,80.2 221.8,82.5 221.8,85.7 C221.8,88.9 223.8,91.1 226.8,91.1 C229.9,91.1 231.7,88.7 231.7,85.6 Z" id="Shape" fill-rule="nonzero"></path>
            <path d="M254.9,93.4 C254.9,98.5 251.4,101.4 246.5,101.4 C243.8,101.4 241.6,100.6 239.7,99 L241.2,96.9 C242.6,97.9 244.4,98.6 246.3,98.6 C249.4,98.6 251.6,96.9 251.6,92.9 L251.6,91.4 L251.6,91.4 C250.4,93.1 248.2,93.9 246,93.9 C241.8,93.9 238.5,90.7 238.5,85.6 C238.5,80.2 242.2,77.2 246.2,77.2 C248.4,77.2 250.6,78.1 251.8,79.9 L252.1,77.5 L254.8,77.5 L254.8,93.4 L254.9,93.4 Z M251.7,85.6 C251.7,82.5 249.9,80.2 246.8,80.2 C243.8,80.2 241.8,82.5 241.8,85.7 C241.8,88.9 243.8,91.1 246.8,91.1 C249.9,91.1 251.7,88.7 251.7,85.6 Z" id="Shape" fill-rule="nonzero"></path>
            <path d="M285.8,91.8 C287.4,91.8 289.1,91.3 289.1,89.7 C289.1,86.1 280.3,88.4 280.3,82.3 C280.3,79 283,77.4 286.3,77.4 C288.3,77.4 290.2,78 291.8,79.1 L290.5,81.3 C289.4,80.6 287.8,80.1 286.5,80.1 C285,80.1 283.5,80.6 283.5,82.1 C283.5,85.6 292.3,83.5 292.3,89.5 C292.3,92.9 289.4,94.5 285.9,94.5 C283.4,94.5 281.7,93.7 279.7,92.2 L281.2,90.1 C282.7,91.1 284.1,91.8 285.8,91.8 Z" id="Shape" fill-rule="nonzero"></path>
            <path d="M303.3,94.5 C298.7,94.5 294.9,91.5 294.9,86 C294.9,80.7 298.5,77.3 303.1,77.3 C307.8,77.3 310.8,80.9 310.8,85.5 C310.8,86 310.8,86.6 310.7,86.9 L298.2,86.9 C298.5,89.9 300.5,91.7 303.5,91.7 C305.2,91.7 307,91.1 308.3,90.1 L309.8,92.1 C308.1,93.6 305.8,94.5 303.3,94.5 Z M307.6,84.6 C307.4,82.2 305.9,80.2 303.1,80.2 C300.5,80.2 298.6,82 298.2,84.6 L307.6,84.6 Z" id="Shape" fill-rule="nonzero"></path>
            <path d="M314.2,77.7 L316.9,77.7 L317.2,80.3 L317.2,80.3 C318.1,78.3 319.5,77.4 321.7,77.4 C322.4,77.4 323.2,77.5 323.9,77.7 L323.4,80.7 C322.8,80.5 322.2,80.4 321.5,80.4 C318.1,80.4 317.3,83.3 317.3,86.7 L317.3,94.2 L314.1,94.2 L314.1,77.7 L314.2,77.7 Z" id="Shape" fill-rule="nonzero"></path>
            <polygon id="Shape" fill-rule="nonzero" points="332.8 90.7 337.6 77.7 340.9 77.7 334.3 94.2 331 94.2 324.7 77.7 328.2 77.7"></polygon>
            <path d="M343.2,72.3 C343.2,71.1 344.1,70.2 345.3,70.2 C346.5,70.2 347.4,71.1 347.4,72.3 C347.4,73.5 346.5,74.4 345.3,74.4 C344.1,74.4 343.2,73.5 343.2,72.3 Z M343.7,77.7 L346.9,77.7 L346.9,94.2 L343.7,94.2 L343.7,77.7 Z" id="Shape" fill-rule="nonzero"></path>
            <path d="M364.8,92.6 C363.1,93.8 361.1,94.5 359.1,94.5 C354.8,94.5 350.6,91.7 350.6,86 C350.6,80.6 354.5,77.3 359.2,77.3 C361.1,77.3 363.2,77.8 364.7,79 L363.3,81.3 C362.2,80.6 360.7,80.2 359.3,80.2 C356.2,80.2 353.9,82.5 353.9,85.9 C353.9,89.3 356.2,91.6 359.3,91.6 C360.7,91.6 362.2,91.1 363.3,90.4 L364.8,92.6 Z" id="Shape" fill-rule="nonzero"></path>
            <path d="M374.9,94.5 C370.3,94.5 366.5,91.5 366.5,86 C366.5,80.7 370.1,77.3 374.7,77.3 C379.4,77.3 382.4,80.9 382.4,85.5 C382.4,86 382.4,86.6 382.3,86.9 L369.8,86.9 C370.1,89.9 372.1,91.7 375.1,91.7 C376.8,91.7 378.6,91.1 379.9,90.1 L381.4,92.1 C379.7,93.6 377.3,94.5 374.9,94.5 Z M379.2,84.6 C379,82.2 377.5,80.2 374.7,80.2 C372.1,80.2 370.2,82 369.8,84.6 L379.2,84.6 Z" id="Shape" fill-rule="nonzero"></path>
            <path d="M320.5,15.7 L320.5,8.4 L317.8,8.4 L317.8,6.9 L324.9,6.9 L324.9,8.4 L322.3,8.4 L322.3,15.7 L320.5,15.7 Z M326,15.7 L326,6.9 L328.8,6.9 L330.4,13 L332,6.9 L334.8,6.9 L334.8,15.7 L333.1,15.7 L333.1,8.7 L331.2,15.7 L329.6,15.7 L327.7,8.7 L327.7,15.7 L326,15.7 L326,15.7 Z" id="Shape" fill-rule="nonzero"></path>
            <path d="M264.4,74.7 L265.1,74.7 C266,74.7 266.7,74.4 266.7,73.7 C266.7,73.1 266.3,72.6 265.3,72.6 C264.9,72.6 264.6,72.6 264.4,72.7 L264.4,74.7 Z M264.3,78.6 L262.7,78.6 L262.8,71.6 C263.4,71.5 264.3,71.4 265.4,71.4 C266.7,71.4 267.3,71.6 267.7,72 C268.1,72.3 268.4,72.8 268.4,73.5 C268.4,74.3 267.8,74.9 267,75.1 L267,75.2 C267.7,75.4 268,76 268.2,76.9 C268.4,78 268.6,78.3 268.7,78.6 L267,78.6 C266.8,78.3 266.7,77.8 266.5,76.9 C266.4,76.2 266,75.8 265.1,75.8 L264.4,75.8 L264.3,78.6 Z M260.2,74.9 C260.2,78 262.4,80.5 265.5,80.5 C268.5,80.6 270.7,78.1 270.7,75 C270.7,71.9 268.5,69.4 265.5,69.4 C262.5,69.4 260.2,71.9 260.2,74.9 Z M272.4,75.1 C272.4,79 269.3,82.1 265.4,82 C261.5,82 258.4,78.8 258.4,74.9 C258.4,71 261.6,68 265.5,68 C269.4,68.1 272.5,71.1 272.4,75.1 Z" id="Shape"></path>
        </g>
    </g>
</svg>